<svg xmlns="http://www.w3.org/2000/svg" width="500" height="190" viewBox="0 0 500 190">
    <style>
        .title { font: bold 14px 'Segoe UI', sans-serif; fill: #24292e; }
    </style>
    <rect width="100%" height="100%" fill="#ffffff" rx="8" stroke="#e1e4e8" stroke-width="1"/>
    <text x="20" y="30" class="title">Top Languages</text>
    <rect x="20" y="50" width="97.30029617675709" height="12" fill="#4F5D95" rx="3"/>
<rect x="119.30029617675709" y="50" width="95.00794177886874" height="12" fill="#f1e05a" rx="3"/>
<rect x="216.30823795562583" y="50" width="65.66433323521954" height="12" fill="#663399" rx="3"/>
<rect x="283.9725711908454" y="50" width="63.28063920341572" height="12" fill="#3178c6" rx="3"/>
<rect x="349.2532103942611" y="50" width="58.19626655500275" height="12" fill="#e34c26" rx="3"/>
<rect x="409.44947694926384" y="50" width="19.172008883263395" height="12" fill="#f34b7d" rx="3"/>
<rect x="430.62148583252724" y="50" width="12.6260518625419" height="12" fill="#555555" rx="3"/>
<rect x="445.2475376950691" y="50" width="11.411745512313733" height="12" fill="#00B4AB" rx="3"/>
<rect x="458.6592832073829" y="50" width="10.94092575459815" height="12" fill="#945db7" rx="3"/>
<rect x="471.600208961981" y="50" width="8.39979103801898" height="12" fill="#b07219" rx="3"/>
    
            <circle cx="25" cy="85" r="5" fill="#4F5D95"/>
            <text x="38" y="89" font-family="Segoe UI, sans-serif" font-size="12" fill="#586069">PHP 22.0%</text>

            <circle cx="143" cy="85" r="5" fill="#f1e05a"/>
            <text x="156" y="89" font-family="Segoe UI, sans-serif" font-size="12" fill="#586069">JavaScript 21.5%</text>

            <circle cx="310" cy="85" r="5" fill="#663399"/>
            <text x="323" y="89" font-family="Segoe UI, sans-serif" font-size="12" fill="#586069">CSS 14.9%</text>

            <circle cx="25" cy="110" r="5" fill="#3178c6"/>
            <text x="38" y="114" font-family="Segoe UI, sans-serif" font-size="12" fill="#586069">TypeScript 14.3%</text>

            <circle cx="192" cy="110" r="5" fill="#e34c26"/>
            <text x="205" y="114" font-family="Segoe UI, sans-serif" font-size="12" fill="#586069">HTML 13.2%</text>

            <circle cx="317" cy="110" r="5" fill="#f34b7d"/>
            <text x="330" y="114" font-family="Segoe UI, sans-serif" font-size="12" fill="#586069">C++ 4.3%</text>

            <circle cx="25" cy="135" r="5" fill="#555555"/>
            <text x="38" y="139" font-family="Segoe UI, sans-serif" font-size="12" fill="#586069">C 2.9%</text>

            <circle cx="122" cy="135" r="5" fill="#00B4AB"/>
            <text x="135" y="139" font-family="Segoe UI, sans-serif" font-size="12" fill="#586069">Dart 2.6%</text>

            <circle cx="240" cy="135" r="5" fill="#945db7"/>
            <text x="253" y="139" font-family="Segoe UI, sans-serif" font-size="12" fill="#586069">Visual Basic .NET 2.5%</text>

            <circle cx="25" cy="160" r="5" fill="#b07219"/>
            <text x="38" y="164" font-family="Segoe UI, sans-serif" font-size="12" fill="#586069">Java 1.9%</text>

</svg>